# xmcd
#
# Track frame offsets:
#	150
#	37142
#	72670
#	97156
#	154636
#	200729
#	259939
#
# Disc length: 3639 seconds
#
# Revision: 3
# Processed by: cddbd v1.5.2PL0 Copyright (c) Steve Scherf et al.
# Submitted via: audiograbber 1.83.01
#
DISCID=6c0e3507
DTITLE=Henrik Freischlader - Tour 2010 [CD2-Set Two)
DYEAR=2010
DGENRE=Blues
TTITLE0=Breakout
TTITLE1=Drumsolo Hardy Fischötter
TTITLE2=The Wrong Way
TTITLE3=Cry Again
TTITLE4=Tired Of Beggin'
TTITLE5=Foxy Lady
TTITLE6=Mo's Shuffle
EXTD=
EXTT0=
EXTT1=
EXTT2=
EXTT3=
EXTT4=
EXTT5=
EXTT6=
PLAYORDER=
